<?xml version="1.0" encoding="UTF-8" standalone="no"?>
<!DOCTYPE svg PUBLIC "-//W3C//DTD SVG 1.1//EN" "http://www.w3.org/Graphics/SVG/1.1/DTD/svg11.dtd">
<svg width="100%" height="100%" viewBox="0 0 64 64" version="1.1" xmlns="http://www.w3.org/2000/svg" xmlns:xlink="http://www.w3.org/1999/xlink" xml:space="preserve" xmlns:serif="http://www.serif.com/" style="fill-rule:evenodd;clip-rule:evenodd;stroke-linejoin:round;stroke-miterlimit:2;">
    <g id="a">
        <path d="M5.466,24.859L35.076,50.228L58.185,36.501L58.194,34.481L35.302,34.481L5.467,22.815L5.466,24.859Z" style="fill:#434343;fill-rule:nonzero;"/>
        <path d="M35.302,22.803L5.433,22.803L5.433,38.148L35.302,63.163L35.302,22.803Z" style="fill:#d4d4d4;"/>
        <path d="M38.466,46.09L35.302,46.09L35.302,63.163L38.466,61.06L38.466,46.09Z" style="fill:#716e6e;"/>
        <path d="M5.994,22.665L40.081,45.056L53.95,36.841L28.534,8.799L5.994,22.665Z" style="fill:#d4d4d4;fill-rule:nonzero;"/>
        <path d="M5.433,22.803L35.304,47.903L46.948,40.988L16.932,15.874L5.433,22.803Z" style="fill:#929191;fill-rule:nonzero;"/>
        <path d="M18.73,14.95L48.583,40.02L58.201,34.487L28.534,8.799L25.312,10.781L18.73,14.95Z" style="fill:#929191;fill-rule:nonzero;"/>
        <path d="M47.254,41.49L58.567,34.796L47.254,41.49Z" style="fill:#808080;fill-rule:nonzero;"/>
        <path d="M5.433,22.803L35.304,47.903L38.466,46.025L8.327,21.059L5.433,22.803Z" style="fill:#716e6e;fill-rule:nonzero;"/>
    </g>
</svg>
